<?xml version="1.0" standalone="no"?>
<!DOCTYPE svg PUBLIC "-//W3C//DTD SVG 20010904//EN"
 "http://www.w3.org/TR/2001/REC-SVG-20010904/DTD/svg10.dtd">
<svg version="1.0" xmlns="http://www.w3.org/2000/svg"
 width="1261.000000pt" height="1280.000000pt" viewBox="0 0 1261.000000 1280.000000"
 preserveAspectRatio="xMidYMid meet">
<metadata>
Created by potrace 1.15, written by Peter Selinger 2001-2017
</metadata>
<g transform="translate(0.000000,1280.000000) scale(0.100000,-0.100000)"
fill="#000000" stroke="none">
<path d="M8682 12788 c-313 -39 -592 -176 -875 -431 -102 -93 -265 -284 -334
-393 -38 -61 161 450 205 525 l26 44 -33 -19 c-73 -42 -261 -190 -334 -262
-43 -42 -98 -107 -123 -144 -62 -92 -129 -237 -159 -344 l-25 -89 5 140 c9
207 46 548 71 650 8 29 -41 -29 -133 -160 -74 -106 -135 -222 -173 -328 -26
-74 -24 -38 5 74 36 143 77 246 155 395 38 73 70 136 70 139 0 3 -29 -18 -65
-46 -193 -151 -367 -417 -443 -674 -54 -181 -66 -278 -66 -515 0 -118 3 -227
7 -241 5 -20 3 -28 -10 -33 -25 -10 -31 2 -58 110 -36 146 -63 315 -75 471 -6
76 -14 162 -17 192 l-5 54 -38 -70 c-83 -153 -120 -318 -120 -535 0 -177 11
-249 66 -430 59 -194 101 -293 192 -448 14 -24 13 -24 -3 -5 -9 11 -62 83
-117 160 -56 77 -124 172 -152 210 -94 131 -220 396 -233 492 -10 76 -20 26
-26 -137 -7 -175 5 -404 28 -528 31 -165 140 -418 249 -579 31 -46 52 -83 47
-83 -4 0 -35 34 -67 76 -33 42 -86 110 -120 152 -33 43 -141 196 -239 342 -98
146 -182 270 -187 275 -24 27 53 -348 102 -498 23 -67 81 -203 130 -302 147
-298 292 -497 552 -757 92 -93 165 -168 163 -168 -17 0 -246 130 -345 195
-288 192 -465 400 -556 655 -15 41 -33 82 -41 90 -11 12 -13 9 -13 -23 0 -21
6 -70 14 -110 8 -40 19 -106 26 -147 45 -275 210 -536 543 -863 l151 -147 -58
20 c-251 86 -450 207 -577 351 -95 108 -177 189 -190 189 -33 0 33 -230 104
-363 143 -268 391 -482 831 -717 141 -76 128 -86 -42 -33 -182 56 -382 169
-742 416 -85 59 -162 107 -172 107 -30 0 -21 -40 26 -123 84 -148 201 -269
361 -376 144 -97 205 -126 650 -306 132 -53 242 -99 243 -100 2 -2 -97 -4
-220 -4 -388 1 -696 -44 -1058 -152 -133 -39 -164 -37 -252 23 -102 70 -149
83 -308 83 -74 0 -157 -3 -183 -7 l-48 -8 22 33 c12 17 35 46 52 63 35 38 30
52 -40 114 -54 48 -121 81 -217 107 -36 9 -66 20 -66 23 0 4 11 17 25 30 14
13 25 27 25 31 0 18 -65 81 -103 100 -21 11 -68 27 -104 34 -36 8 -67 16 -70
18 -2 3 10 15 26 27 39 27 39 48 -1 87 -65 63 -217 70 -394 18 -20 -6 -21 -4
-16 75 17 299 -124 619 -405 919 -188 201 -326 296 -443 307 -116 11 -157 -44
-193 -255 -12 -72 -25 -131 -29 -131 -5 0 -8 8 -8 18 0 31 -66 155 -112 209
-177 212 -452 298 -652 205 -116 -54 -246 -199 -311 -346 -14 -31 -47 -146
-74 -256 -57 -234 -81 -282 -207 -420 -77 -84 -81 -86 -140 -97 -147 -26 -319
-121 -457 -252 -241 -230 -490 -721 -606 -1193 -68 -277 -83 -402 -88 -736 -3
-235 -7 -301 -19 -330 -8 -21 -22 -82 -30 -137 -8 -55 -19 -116 -24 -135 -14
-51 -13 -56 22 -95 72 -83 214 -117 332 -80 l56 18 54 -36 c170 -113 397 -194
651 -233 147 -22 526 -22 770 0 99 9 191 19 205 22 32 6 86 -28 117 -75 33
-48 32 -144 -2 -226 -14 -33 -28 -75 -31 -93 -5 -24 -11 -31 -23 -28 -9 3 -97
26 -196 51 -255 63 -393 85 -544 85 -70 0 -178 7 -241 16 -143 20 -445 14
-560 -11 -222 -48 -350 -126 -411 -250 -40 -81 -47 -155 -24 -255 23 -98 23
-112 -9 -195 -38 -96 -44 -180 -17 -223 12 -18 32 -38 46 -44 14 -6 25 -17 25
-25 0 -45 60 -102 107 -103 10 -1 27 -15 38 -33 13 -20 45 -45 89 -67 57 -29
82 -36 145 -38 42 -2 94 1 117 6 30 7 47 6 65 -4 38 -21 123 -16 279 16 250
52 353 50 505 -9 69 -27 304 -168 305 -184 0 -5 -4 -5 -10 -2 -5 3 -10 2 -10
-4 0 -6 55 -37 122 -70 135 -66 278 -155 278 -174 0 -7 22 -36 48 -65 47 -52
48 -53 167 -83 102 -26 144 -32 280 -36 159 -5 160 -5 198 -35 74 -58 278 -74
497 -39 138 22 402 51 409 45 2 -2 -9 -18 -24 -36 l-27 -32 45 -43 c25 -24 55
-43 66 -43 12 0 21 -2 21 -4 0 -2 -12 -30 -27 -62 -26 -55 -28 -68 -28 -184 0
-180 48 -378 147 -605 172 -398 527 -844 862 -1082 l82 -58 -341 3 c-242 2
-383 7 -490 20 -184 21 -236 20 -323 -7 -86 -26 -158 -81 -191 -145 -33 -64
-41 -168 -16 -215 19 -37 93 -88 142 -97 30 -6 33 -9 33 -43 0 -55 31 -80 116
-92 68 -9 91 -8 170 12 39 10 41 9 81 -30 38 -39 44 -41 100 -41 45 0 72 6
108 25 l48 26 28 -27 c22 -21 41 -28 83 -32 47 -4 65 1 143 36 224 103 281
116 633 147 96 8 240 28 320 45 296 62 410 81 635 105 127 14 260 29 296 33
60 7 69 6 93 -13 l27 -22 -103 -30 c-157 -48 -219 -55 -543 -63 -283 -7 -329
-12 -410 -42 -129 -48 -176 -189 -124 -378 11 -41 25 -97 29 -124 11 -59 31
-91 73 -116 42 -26 84 -25 140 4 46 23 47 23 64 3 25 -27 128 -75 180 -83 58
-8 103 1 149 32 37 26 38 26 87 10 68 -22 106 -20 161 8 l47 24 29 -29 c60
-60 133 -30 270 111 83 86 102 100 149 114 60 18 182 20 371 7 146 -10 270 1
490 44 96 18 279 50 405 70 447 71 568 95 729 149 39 13 98 29 131 35 97 18
212 60 244 90 64 60 59 148 -16 315 -86 192 -86 193 -87 296 0 106 17 177 66
277 36 73 5 65 311 88 452 33 781 82 1005 149 429 129 738 356 910 667 56 102
59 119 28 149 l-26 23 -22 -20 c-13 -11 -28 -19 -33 -17 -6 2 -51 -9 -100 -26
-49 -17 -85 -26 -80 -21 6 5 57 44 115 87 211 157 373 349 445 526 54 134 80
299 53 335 -7 8 25 47 102 125 384 387 604 821 602 1187 -1 57 -3 105 -5 107
-2 2 -33 -23 -68 -56 -128 -121 -296 -238 -460 -321 -90 -45 -112 -47 -47 -4
132 87 392 329 460 429 71 102 120 223 163 396 24 96 59 300 52 306 -4 5 -343
-189 -552 -315 -190 -116 -200 -121 -165 -92 208 175 268 250 390 488 111 218
120 413 30 678 -17 49 -36 92 -43 97 -26 16 -43 7 -56 -29 -65 -184 -177 -448
-216 -505 -25 -38 -47 -68 -50 -68 -2 0 3 16 11 35 111 266 133 618 63 980
-28 140 -33 161 -92 338 -49 149 -67 185 -67 135 -1 -77 -42 -439 -60 -522
-22 -100 -66 -245 -78 -258 -4 -4 -5 42 -4 103 8 253 -61 526 -256 1009 -92
226 -127 308 -137 318 -4 4 -5 -4 -1 -18 9 -31 21 -447 13 -439 -10 8 -223
691 -248 792 -12 49 -25 85 -29 80 -15 -16 -80 -384 -105 -588 -18 -145 -35
-186 -35 -84 0 83 -23 257 -49 375 -43 194 -145 494 -163 476 -12 -12 -79
-170 -114 -269 -16 -46 -31 -83 -34 -82 -3 0 -18 27 -33 59 -16 33 -51 84 -78
114 -46 51 -139 121 -169 128 -8 2 -24 -24 -41 -67 l-28 -70 0 97 c-1 94 -2
99 -31 130 l-30 33 -79 -81 -79 -82 -7 37 c-10 51 -52 137 -88 178 -55 63
-116 80 -202 57 l-57 -14 -38 32 c-21 18 -39 38 -39 44 -1 7 22 36 49 65 28
29 50 58 50 64 0 18 -72 82 -120 105 -25 12 -47 24 -49 26 -2 2 28 37 67 78
40 41 72 79 72 86 0 23 -21 49 -57 71 -46 27 -163 120 -163 129 0 3 14 14 31
24 17 10 46 32 65 48 l34 30 -59 114 -59 114 37 0 c20 0 50 -4 67 -9 l31 -9
12 54 c16 71 60 119 118 128 83 15 254 -52 351 -136 27 -24 77 -67 111 -96 34
-29 68 -67 77 -84 8 -16 17 -28 20 -26 3 4 -22 105 -41 163 -18 55 45 -50 167
-277 73 -136 136 -248 139 -248 3 0 7 24 8 53 1 45 37 335 45 362 6 20 170
-314 231 -470 7 -19 8 -18 15 5 4 14 18 89 31 168 13 78 26 142 30 142 19 0
128 -295 184 -497 16 -57 30 -101 33 -99 10 10 31 220 32 308 0 163 -43 422
-95 567 -8 24 -13 46 -11 48 9 9 89 -98 125 -167 54 -103 88 -208 111 -347 12
-65 29 -149 39 -188 l18 -70 13 45 c24 89 80 375 91 476 14 116 3 230 -31 330
-11 31 -18 59 -16 61 2 2 30 -22 63 -54 75 -74 174 -208 216 -292 l32 -66 7
55 c5 30 9 114 10 185 1 113 -2 143 -25 227 -32 117 -85 264 -139 378 l-39 85
42 -40 c50 -49 141 -161 171 -210 15 -27 23 -33 29 -23 14 21 10 137 -6 206
-32 134 -151 327 -294 475 -52 53 -90 97 -85 97 22 0 168 -99 234 -158 38 -35
70 -60 70 -55 0 4 -25 60 -56 123 -78 163 -170 296 -278 402 -86 86 -88 90
-43 63 26 -15 50 -25 52 -23 7 7 -62 117 -129 209 -79 106 -242 261 -352 335
-228 153 -520 257 -780 280 -139 12 -116 23 47 24 136 0 281 -9 414 -25 l40
-5 -25 21 c-34 29 -199 111 -285 142 -38 13 -106 33 -150 42 -44 10 -84 20
-89 23 -12 7 -23 7 -211 17 -166 8 -339 -4 -514 -35 -124 -23 -143 -24 -81 -5
75 24 276 53 440 65 277 19 300 22 300 30 0 23 -151 103 -250 132 -94 28 -288
35 -407 14 -301 -52 -753 -280 -1093 -551 -47 -37 -91 -73 -99 -79 -8 -6 2 16
23 49 144 228 393 479 644 649 l83 56 -48 -1 c-26 -1 -81 -6 -121 -11z m-8229
-8774 c-4 -19 -20 -13 -32 12 -12 27 -12 27 11 12 13 -9 22 -19 21 -24z"/>
</g>
</svg>
